<svg width="40" height="40" viewBox="0 0 40 40" fill="none" xmlns="http://www.w3.org/2000/svg" class="svg svg-spotifylogo"><path d="M20 40c11.04 0 20-8.96 20-20S31.04 0 20 0 0 8.96 0 20s8.96 20 20 20zm8.12-10.573v.001c-1.345 0-5.593-4.713-17.533-2.266-.315.081-.727.21-.96.21-1.525 0-1.817-2.282-.177-2.63 6.605-1.459 13.355-1.33 19.112 2.113 1.373.877.79 2.572-.442 2.572zm2.172-5.289c-.189-.05-.134.115-.995-.338-5.042-2.983-12.555-4.187-19.242-2.372-.387.105-.597.21-.96.21-1.785 0-2.258-2.685-.313-3.233 7.86-2.208 16.291-.92 22.161 2.572.654.386.912.888.912 1.588-.008.87-.685 1.573-1.563 1.573zM7.58 11.663c7.538-2.206 18.947-1.51 26.04 2.63 1.818 1.049 1.103 3.7-.83 3.7l-.002-.001c-.42 0-.678-.105-1.041-.315-5.739-3.427-16.007-4.249-22.65-2.394-.292.08-.655.209-1.042.209-1.065 0-1.878-.832-1.878-1.904 0-1.095.678-1.715 1.403-1.925z" fill="#000"/></svg>