<svg width="40" height="41" viewBox="0 0 40 41" fill="none" xmlns="http://www.w3.org/2000/svg" class="svg svg-youtubelogo"><path d="M37.958 10.893c-.432-1.647-1.699-2.945-3.305-3.388-2.935-.823-14.673-.823-14.673-.823s-11.738 0-14.672.791c-1.576.443-2.873 1.773-3.305 3.42-.773 3.007-.773 9.245-.773 9.245s0 6.269.773 9.245c.432 1.646 1.698 2.944 3.305 3.388 2.965.823 14.672.823 14.672.823s11.738 0 14.673-.792c1.606-.443 2.873-1.741 3.305-3.387.772-3.008.772-9.246.772-9.246s.031-6.269-.772-9.276zM16.243 25.9V14.375l9.76 5.763-9.76 5.762z" fill="#000"/></svg>