<svg width="40" height="40" viewBox="0 0 40 40" fill="none" xmlns="http://www.w3.org/2000/svg" class="svg svg-itunelogo"><path d="M27.685 7.66c-.11 0-.49.054-.845.12-1.568.292-10.812 2.176-10.97 2.236a1.182 1.182 0 00-.601.545l-.098.198s-.045 13.987-.116 14.144c-.108.24-.347.466-.567.539-.105.034-.518.13-.918.21-1.855.378-2.544.65-3.127 1.236-.33.332-.576.786-.682 1.262-.101.456-.067 1.137.077 1.55.301.865.97 1.477 1.869 1.713.849.222 2.438-.025 3.252-.506.339-.201.776-.623 1.004-.97.09-.138.225-.414.3-.615.265-.703.274-13.234.307-13.392a.674.674 0 01.483-.53c.222-.06 9.124-1.861 9.375-1.897.235-.033.458.05.565.214.073.11.252 8.755.01 9.043-.177.21-.544.29-1.448.48-1.377.287-1.848.423-2.375.687-.659.329-1.024.69-1.307 1.288-.2.424-.274.741-.274 1.163.002.754.256 1.343.83 1.92.393.396.754.604 1.25.721.559.132 1.696.045 2.473-.189 1.101-.33 1.878-1.131 2.197-2.263.062-.22.093-.448.093-.678.002-2.485.01-17.554-.023-17.668-.104-.358-.371-.562-.734-.561z" fill="#000"/><path d="M19.98 1.23C9.625 1.23 1.23 9.625 1.23 19.98c0 10.356 8.395 18.75 18.75 18.75 10.356 0 18.75-8.394 18.75-18.75 0-10.355-8.394-18.75-18.75-18.75zm0 35.926c-9.485 0-17.175-7.69-17.175-17.175 0-9.486 7.69-17.176 17.175-17.176 9.486 0 17.176 7.69 17.176 17.175 0 9.486-7.69 17.176-17.175 17.176z" fill="#000"/></svg>