<svg width="127" height="58" viewBox="0 0 127 58" fill="none" xmlns="http://www.w3.org/2000/svg" class="svg svg-logo"><g clip-path="url(#clip0)"><path d="M22.303.004H0v10.72h22.303V.003z" fill="#010101"/><path d="M22.303 22.514v-10.72H0v10.72h11.626v1.072H0v34.392h22.303V22.514zM11.626 47.223H10.62v-13.03h1.005v13.03z" fill="#010101"/><path d="M33.89 23.554L33.873 0h-10.62v57.978h10.62V34.312h1.075V46.26h10.62V23.554H33.891z" fill="#010101"/><path d="M126.968.042L104.757.038v.004h-.029V58h22.243v-.01h.032V35.236h-10.684v12.006h-.907V34.225h11.556V.042zm-11.556 10.754h.907v12.672h-.907V10.796z" fill="#010101"/><path d="M80.52 11.814H69.833v34.529H80.52v-34.53z" fill="#010101"/><path d="M80.52 0H69.833v10.572H80.52V0z" fill="#010101"/><path d="M80.463 57.974V47.191h-11.66V22.588h.006V11.8H57.215V10.79h11.613V.006H34.937v10.787h11.59v1.011h-11.59v10.787h11.59v24.603h-11.59v10.784h45.526v-.004zM57.215 22.588h.903V47.19h-.903V22.588z" fill="#B22825"/><path d="M103.714 45.591V.041H93.027v45.55h-.964V.003H81.455v45.588h-.006v7.89L85.925 58h17.84V45.591h-.051z" fill="#010101"/></g><defs><clipPath id="clip0"><rect width="127" height="58" fill="#fff"/></clipPath></defs></svg>